<?xml version="1.0" standalone="no"?>
<!DOCTYPE svg PUBLIC "-//W3C//DTD SVG 20010904//EN"
 "http://www.w3.org/TR/2001/REC-SVG-20010904/DTD/svg10.dtd">
<svg version="1.0" xmlns="http://www.w3.org/2000/svg"
 width="256.000000pt" height="256.000000pt" viewBox="0 0 256.000000 256.000000"
 preserveAspectRatio="xMidYMid meet">

<g transform="translate(0.000000,256.000000) scale(0.100000,-0.100000)"
fill="#000000" stroke="none">
<path d="M1705 2097 c-136 -45 -225 -163 -225 -298 0 -96 23 -153 89 -220 74
-75 145 -103 248 -97 334 21 417 455 114 599 -56 27 -168 35 -226 16z m39
-157 c14 -5 33 -24 42 -41 24 -47 7 -95 -56 -153 l-49 -46 53 0 53 0 -5 -30
-4 -30 -122 0 -121 0 87 83 c89 84 112 123 88 152 -18 22 -38 18 -66 -12 -21
-23 -27 -25 -49 -15 -32 15 -32 22 8 59 46 44 88 54 141 33z m292 -22 c-3 -13
-8 -53 -11 -90 -6 -58 -4 -68 9 -68 11 0 16 -9 16 -30 0 -23 -4 -30 -20 -30
-16 0 -20 -7 -20 -30 0 -28 -3 -30 -36 -30 -34 0 -35 1 -29 30 l7 30 -77 0
c-62 0 -76 3 -73 15 2 8 39 62 83 119 76 101 82 105 118 106 34 0 37 -2 33
-22z"/>
<path d="M1927 1804 c-27 -38 -27 -39 -6 -42 30 -5 41 10 37 48 l-3 33 -28
-39z"/>
</g>
</svg>
